<svg width="24" height="29" viewBox="0 0 24 29" fill="none" xmlns="http://www.w3.org/2000/svg">
<path d="M4.59346 9.34504V8.01117C4.59346 3.59113 8.01774 0.00798035 12.2418 0.00798035C16.4659 0.00798035 19.8902 3.59113 19.8902 8.01117V9.34504H22.4396C23.1436 9.34504 23.7143 9.94224 23.7143 10.6789V26.6853C23.7143 27.422 23.1436 28.0192 22.4396 28.0192H2.04401C1.34001 28.0192 0.769287 27.422 0.769287 26.6853V10.6789C0.769287 9.94224 1.34001 9.34504 2.04401 9.34504H4.59346ZM21.1649 12.0128H3.31874V25.3514H21.1649V12.0128ZM10.9671 19.659C10.2051 19.1978 9.69236 18.3357 9.69236 17.3482C9.69236 15.8748 10.8338 14.6805 12.2418 14.6805C13.6499 14.6805 14.7913 15.8748 14.7913 17.3482C14.7913 18.3357 14.2786 19.1978 13.5165 19.659V22.6837H10.9671V19.659ZM7.14291 9.34504H17.3407V8.01117C17.3407 5.06448 15.0578 2.67571 12.2418 2.67571C9.42577 2.67571 7.14291 5.06448 7.14291 8.01117V9.34504Z" fill="#1C1C1C"/>
</svg>
