<svg width="20" height="26" viewBox="0 0 20 26" fill="none" xmlns="http://www.w3.org/2000/svg">
<path d="M20 26H17.5V23.5238C17.5 21.4724 15.8211 19.8095 13.75 19.8095H6.25C4.17894 19.8095 2.5 21.4724 2.5 23.5238V26H0V23.5238C0 20.1049 2.79822 17.3333 6.25 17.3333H13.75C17.2017 17.3333 20 20.1049 20 23.5238V26ZM10 14.8571C5.85786 14.8571 2.5 11.5312 2.5 7.42857C2.5 3.32588 5.85786 0 10 0C14.1421 0 17.5 3.32588 17.5 7.42857C17.5 11.5312 14.1421 14.8571 10 14.8571ZM10 12.381C12.7614 12.381 15 10.1637 15 7.42857C15 4.69345 12.7614 2.47619 10 2.47619C7.23857 2.47619 5 4.69345 5 7.42857C5 10.1637 7.23857 12.381 10 12.381Z" fill="#1C1C1C"/>
</svg>
