<svg xmlns="http://www.w3.org/2000/svg" viewBox="0 0 24 24" id="Single-Neutral-Circle-Alternate--Streamline-Ultimate" height="24" width="24"><desc>Single Neutral Circle Alternate Streamline Icon: https://streamlinehq.com</desc><path d="M12 0a12 12 0 1 0 12 12A12 12 0 0 0 12 0Zm0 2.5a9.49 9.49 0 0 1 7.3 15.56 0.51 0.51 0 0 1 -0.59 0.14c-0.88 -0.4 -1.95 -0.79 -3.16 -1.24l-0.75 -0.27c-0.13 -0.05 -0.25 -0.27 -0.32 -0.56a2 2 0 0 1 0.19 -1.53c1.07 -1.18 1.73 -2.44 1.73 -5.1A4.3 4.3 0 0 0 12 4.83 4.3 4.3 0 0 0 7.6 9.5c0 2.66 0.66 3.93 1.73 5.1a2 2 0 0 1 0.19 1.53c-0.07 0.29 -0.19 0.51 -0.32 0.56l-0.75 0.31c-1.21 0.45 -2.28 0.84 -3.16 1.24a0.51 0.51 0 0 1 -0.59 -0.14A9.49 9.49 0 0 1 12 2.5Z" fill="#ffffff" stroke-width="1"></path></svg>