<svg width="37" height="42" viewBox="0 0 37 42" fill="none" xmlns="http://www.w3.org/2000/svg">
<g clip-path="url(#clip0_11_694)">
<path d="M0.776228 19.1461C-0.256138 20.1715 -0.256138 21.8367 0.776228 22.8621L13.9905 35.9871C15.0229 37.0125 16.6994 37.0125 17.7318 35.9871C18.7642 34.9617 18.7642 33.2965 17.7318 32.2711L9.01864 23.625H34.357C35.8189 23.625 36.9999 22.4519 36.9999 21C36.9999 19.548 35.8189 18.375 34.357 18.375H9.0269L17.7235 9.72889C18.7559 8.7035 18.7559 7.03827 17.7235 6.01288C16.6912 4.98749 15.0146 4.98749 13.9823 6.01288L0.767969 19.1379L0.776228 19.1461Z" fill="#7360F1"/>
</g>
<defs>
<clipPath id="clip0_11_694">
<rect width="37" height="42" fill="white"/>
</clipPath>
</defs>
</svg>
